<svg xmlns="http://www.w3.org/2000/svg" width="11.07" height="9.98" viewBox="0 0 11.07 9.98"><title>heart</title><path d="M5.52,3.14A2.59,2.59,0,0,0,3,.5h-.1A2.29,2.29,0,0,0,.49,2.7a2.13,2.13,0,0,0,0,.44,23,23,0,0,1,5,6.34" transform="translate(0.02 0)" stroke="#000" stroke-linecap="round" stroke-linejoin="round"/><path d="M5.51,3.14A2.59,2.59,0,0,1,8.05.5h.1a2.31,2.31,0,0,1,2.4,2.21,2,2,0,0,1,0,.43,23,23,0,0,0-5,6.34" transform="translate(0.02 0)" stroke="#000" stroke-linecap="round" stroke-linejoin="round"/></svg>