<svg xmlns="http://www.w3.org/2000/svg" width="11.03" height="60.57" viewBox="0 0 11.03 60.57"><title>arrow_heart_arrow_thick</title><line x1="5.52" y1="51.07" x2="5.52" y2="4.07" fill="#fff" stroke="#000" stroke-linecap="round" stroke-linejoin="round" stroke-width="3"/><polyline points="8.6 1 5.52 3.85 2.19 1" fill="none" stroke="#000" stroke-linecap="round" stroke-linejoin="round" stroke-width="2"/><polyline points="8.6 4.85 5.52 7.7 2.19 4.85" fill="none" stroke="#000" stroke-linecap="round" stroke-linejoin="round" stroke-width="2"/><polyline points="8.6 8.7 5.52 11.55 2.19 8.7" fill="none" stroke="#000" stroke-linecap="round" stroke-linejoin="round" stroke-width="2"/><path d="M5.49,53.8a2.32,2.32,0,0,0-2.37-2.37A2.07,2.07,0,0,0,1,53.8a20.57,20.57,0,0,1,4.51,5.7" transform="translate(0.03 0.07)" fill="none" stroke="#000" stroke-linecap="round" stroke-linejoin="round" stroke-width="2"/><path d="M5.48,53.8a2.32,2.32,0,0,1,2.38-2.37A2.07,2.07,0,0,1,10,53.8a20.57,20.57,0,0,0-4.51,5.7" transform="translate(0.03 0.07)" fill="none" stroke="#000" stroke-linecap="round" stroke-linejoin="round" stroke-width="2"/></svg>