<svg xmlns="http://www.w3.org/2000/svg" width="43.03" height="277" viewBox="0 0 43.03 277"><title>arrow_heart_arrow</title><line x1="21.53" y1="240.5" x2="21.53" y2="14.5" fill="#fff" stroke="#000" stroke-linecap="round" stroke-linejoin="round" stroke-width="5"/><polyline points="34.53 2.5 21.53 14.5 7.53 2.5" fill="none" stroke="#000" stroke-linecap="round" stroke-linejoin="round" stroke-width="5"/><polyline points="34.53 14.5 21.53 26.5 7.53 14.5" fill="none" stroke="#000" stroke-linecap="round" stroke-linejoin="round" stroke-width="5"/><polyline points="34.53 26.5 21.53 38.5 7.53 26.5" fill="none" stroke="#000" stroke-linecap="round" stroke-linejoin="round" stroke-width="5"/><path d="M26.5,253.5s0-10-10-10-9,10-9,10a86.33,86.33,0,0,1,19,24" transform="translate(-4.97 -3)" fill="none" stroke="#000" stroke-linecap="round" stroke-linejoin="round" stroke-width="5"/><path d="M26.47,253.5s0-10,10-10,9,10,9,10a86.33,86.33,0,0,0-19,24" transform="translate(-4.97 -3)" fill="none" stroke="#000" stroke-linecap="round" stroke-linejoin="round" stroke-width="5"/></svg>