<?xml version="1.0" encoding="utf-8"?>
<!-- Generator: Adobe Illustrator 22.1.0, SVG Export Plug-In . SVG Version: 6.00 Build 0)  -->
<svg version="1.1" id="Calque_1" xmlns="http://www.w3.org/2000/svg" xmlns:xlink="http://www.w3.org/1999/xlink" x="0px" y="0px"
	 viewBox="0 0 235.5 173" style="enable-background:new 0 0 235.5 173;" xml:space="preserve">
<style type="text/css">
	.st0{fill:#FFFFBD;stroke:#000000;stroke-width:2;stroke-miterlimit:10;}
	.st1{fill:#FF0000;stroke:#000000;stroke-width:5;stroke-linecap:round;stroke-linejoin:round;}
	.st2{fill:#FFFFE1;stroke:#000000;stroke-width:2;stroke-linecap:round;stroke-linejoin:round;}
</style>
<path class="st0" d="M55.7,33.7c0,0-22.3-32-38.2-18.5s7.6,38.5,7.6,38.5L55.7,33.7z"/>
<path class="st0" d="M158.6,100.5c0,0,29,26.1,41.4,9.3c12.4-16.8-16.2-35.7-16.2-35.7L158.6,100.5z"/>
<title>heart_tatoo</title>
<path class="st1" d="M203.4,17.9L203.4,17.9c-14.8-17.9-41.3-20.5-59.2-5.8c-1.1,0.9-2.1,1.8-3,2.8l-23.2,23.7L94.7,14.8
	c-16.4-16.4-43-16.5-59.5,0c-1,1-1.9,2-2.8,3l0,0c-12.4,15.1-12.8,36.7-1,52.2c0,0,86.5,77.6,86.5,100.6
	c0-23.1,86.4-100.6,86.4-100.6C216.2,54.5,215.7,32.9,203.4,17.9z"/>
<path class="st2" d="M198.1,58.2c-13.5-13.9-33.1-20.1-52.3-17.7c-12.8,1.6-27,5-40.2,8.9l-36.2,7.1c-6.2,1.3-12.4,1.8-18.7,1.6
	c-45-2-34.2-41.9-34.2-41.9C-2.5,37.8,3.3,55.8,13.9,68.5C26.4,83.3,45.4,91,64.8,90c12.9-0.7,27.3-3,40.8-5.9l38.1-9.8
	c6-1.7,12.2-2.7,18.5-2.9c45-1.4,37.3,39.2,37.3,39.2C216.8,87.5,209.6,70,198.1,58.2z"/>
<g>
	<path d="M73.5,78.4c0.1,0.4-0.3,1.2-1.1,2.3c-0.8,1.1-1.5,1.8-1.9,1.9c-0.5,0.1-1.1,0-2-0.3c-0.8-0.3-1.5-0.8-2-1.4l1.7-1.8
		c0.8,0.8,1.4,1.1,1.7,1.1c0.2,0,0.5-0.2,0.8-0.5c0.3-0.3,0.4-0.5,0.4-0.7c0-0.1-0.2-0.1-0.5-0.2c-0.4-0.1-0.8-0.2-1.3-0.4
		c-0.5-0.2-1-0.4-1.5-0.6c-0.5-0.2-1-0.6-1.4-1c-0.4-0.4-0.7-0.9-0.8-1.4c-0.1-0.5,0.2-1.2,0.9-2.2c0.7-0.9,1.3-1.5,1.8-1.6
		c0.5-0.1,1.1,0,2,0.3c0.8,0.3,1.5,0.8,2,1.4l-1.7,1.8c-0.8-0.8-1.4-1.1-1.7-1.1c-0.2,0-0.3,0.2-0.5,0.4c-0.2,0.2-0.3,0.4-0.2,0.6
		c0,0.1,0.3,0.3,0.9,0.5c0.5,0.2,1.1,0.4,1.8,0.6c0.6,0.2,1.2,0.5,1.8,0.9C73.1,77.4,73.4,77.8,73.5,78.4z"/>
	<path d="M78.5,80.6l-2.6,0.6l-2.3-10.7c-0.1-0.7-0.3-1.2-0.6-1.5c-0.2-0.3-0.5-0.6-0.9-0.8l1.8-2c1.1,0.5,1.8,1.5,2.1,2.8l0.4,1.8
		c0.7-0.9,1.2-1.4,1.5-1.5c0.4-0.1,1,0.2,2,0.7c1,0.6,1.5,1.2,1.7,1.9l0.8,3.8c0.1,0.7,0.3,1.2,0.6,1.5c0.2,0.3,0.6,0.6,0.9,0.8
		l-1.8,2c-1.1-0.5-1.8-1.5-2.1-2.9L79,72.9c0-0.2-0.2-0.4-0.5-0.6c-0.3-0.2-0.5-0.3-0.7-0.2c-0.2,0-0.5,0.4-0.9,1.1L78.5,80.6z"/>
	<path d="M90.2,67.1l1.7,8c0.2,0.4,0.6,0.8,1.2,1L91.7,78c-0.2-0.1-0.4-0.2-0.8-0.5c-0.3-0.2-0.6-0.5-0.8-0.8
		c-0.9,1.3-1.5,2-1.9,2.1c-0.3,0.1-0.9-0.2-1.7-0.7c-0.8-0.5-1.4-1-1.7-1.4c-0.3-0.4-0.5-1.3-0.8-2.7c-0.3-1.4-0.4-2.4-0.3-2.8
		c0.1-0.5,0.4-1.1,0.9-2c0.6-0.8,1-1.3,1.3-1.4c0.5-0.1,1.3,0.2,2.5,0.9l0-1.2L90.2,67.1z M88.1,70.7c-0.1-0.1-0.3-0.3-0.7-0.4
		c-0.3-0.1-0.5-0.2-0.7-0.1c-0.1,0-0.3,0.1-0.4,0.4c-0.1,0.2-0.2,0.4-0.2,0.5c-0.1,0.3,0,1.1,0.2,2.4c0.3,1.3,0.5,2.1,0.8,2.3
		c0.1,0.1,0.2,0.2,0.4,0.4c0.2,0.1,0.4,0.2,0.5,0.2c0.1,0,0.3-0.2,0.6-0.4c0.2-0.2,0.4-0.4,0.4-0.6c0.1-0.2-0.1-0.9-0.3-2.3
		C88.5,71.6,88.3,70.8,88.1,70.7z"/>
	<path d="M97.5,76.6l-2.6,0.6l-1.4-6.7c-0.1-0.7-0.3-1.2-0.6-1.5c-0.2-0.3-0.6-0.6-0.9-0.8l1.8-2c0.6,0.3,1,0.7,1.4,1.1
		c0.8-1.1,1.4-1.7,1.7-1.8c0.3-0.1,0.7,0.1,1.3,0.5c0.6,0.4,1.1,0.8,1.3,1.4l-1.8,2c-0.1-0.3-0.2-0.6-0.4-0.9
		C97.2,68.1,97,68,96.9,68c-0.2,0-0.5,0.4-1,1.1L97.5,76.6z"/>
	<path d="M107.9,68.8l0.2,0.7l-4.7,1c0.2,0.8,0.4,1.4,0.7,1.8c0.1,0.1,0.2,0.3,0.5,0.4c0.2,0.1,0.4,0.2,0.6,0.1
		c0.2,0,0.4-0.2,0.6-0.6c0.2-0.4,0.3-0.8,0.4-1.3l2.3,1c-0.2,0.7-0.6,1.4-1.3,2c-0.6,0.6-1.2,1-1.6,1.1c-0.4,0.1-1.2-0.1-2.1-0.6
		c-1-0.5-1.6-0.9-1.9-1.3c-0.3-0.3-0.6-1.3-0.9-2.8c-0.3-1.5-0.4-2.5-0.3-2.9c0.1-0.4,0.5-1.1,1.2-1.9c0.7-0.9,1.2-1.3,1.6-1.4
		c0.4-0.1,1.1,0.1,2.1,0.6c1,0.5,1.6,0.9,1.9,1.3C107.3,66.4,107.6,67.3,107.9,68.8z M104.7,66.9c-0.1-0.2-0.3-0.3-0.6-0.4
		c-0.2-0.1-0.4-0.2-0.6-0.1c-0.2,0-0.3,0.3-0.5,0.6c-0.1,0.4-0.2,0.9-0.1,1.6l2.2-0.5C105,67.5,104.8,67.1,104.7,66.9z"/>
	<path d="M116.8,63.6l0.9,4.3c0.1,0.6,0.5,1.1,1,1.5s1.2,0.7,2,0.8l-1.8,2c-0.9-0.2-1.6-0.6-2.3-1.1c-0.7-0.5-1.1-1.2-1.2-1.9
		l-1.1-5.2l-1,0.2l-0.3-1.5l0.9-0.4c-0.2-0.6-0.3-1.1-0.6-1.5c-0.2-0.3-0.5-0.7-1-0.9l1.8-2c1.1,0.5,1.8,1.5,2.1,2.9l0.1,0.6
		l2.2-0.5l0.4,2.1L116.8,63.6z"/>
	<path d="M125.3,70.6l-2.6,0.6l-2.3-10.7c-0.1-0.7-0.3-1.2-0.6-1.5c-0.2-0.3-0.5-0.6-0.9-0.8l1.8-2c1.1,0.5,1.8,1.5,2.1,2.8l0.4,1.8
		c0.7-0.9,1.2-1.4,1.5-1.5c0.4-0.1,1,0.2,2,0.7c1,0.6,1.5,1.2,1.7,1.9l0.8,3.8c0.1,0.7,0.3,1.2,0.6,1.5c0.2,0.3,0.6,0.6,0.9,0.8
		l-1.8,2c-1.1-0.5-1.8-1.5-2.1-2.9l-0.9-4.3c0-0.2-0.2-0.4-0.5-0.6c-0.3-0.2-0.5-0.3-0.7-0.2c-0.2,0-0.5,0.4-0.9,1.1L125.3,70.6z"/>
	<path d="M138,62.4l0.2,0.7l-4.7,1c0.2,0.8,0.4,1.4,0.7,1.8c0.1,0.1,0.2,0.3,0.5,0.4c0.2,0.1,0.4,0.2,0.6,0.1c0.2,0,0.4-0.2,0.6-0.6
		c0.2-0.4,0.3-0.8,0.4-1.3l2.3,1c-0.2,0.7-0.6,1.4-1.3,2c-0.6,0.6-1.2,1-1.6,1.1s-1.2-0.1-2.1-0.6c-1-0.5-1.6-0.9-1.9-1.3
		c-0.3-0.3-0.6-1.3-0.9-2.8c-0.3-1.5-0.4-2.5-0.3-2.9c0.1-0.4,0.5-1.1,1.2-1.9c0.7-0.9,1.2-1.3,1.6-1.4c0.4-0.1,1.1,0.1,2.1,0.6
		c1,0.5,1.6,0.9,1.9,1.3C137.4,60,137.7,60.9,138,62.4z M134.8,60.5c-0.1-0.2-0.3-0.3-0.6-0.4c-0.2-0.1-0.4-0.2-0.6-0.1
		c-0.2,0-0.3,0.3-0.5,0.6c-0.1,0.4-0.2,0.9-0.1,1.6l2.2-0.5C135.1,61.1,134.9,60.7,134.8,60.5z"/>
	<path d="M142.4,51.6l2.6-0.6l2.3,10.9c0.1,0.7,0.3,1.2,0.6,1.5c0.2,0.3,0.6,0.6,0.9,0.8l-1.8,2c-1.1-0.5-1.8-1.5-2.1-2.9
		L142.4,51.6z"/>
	<path d="M155.2,63.5c-0.7,0.8-1.2,1.3-1.6,1.3s-1-0.1-2-0.6c-0.9-0.5-1.5-0.8-1.8-1.1c-0.4-0.4-0.7-1.4-1.1-3s-0.4-2.7-0.3-3.2
		c0.1-0.4,0.5-0.9,1.2-1.7c0.7-0.8,1.2-1.3,1.6-1.3c0.4-0.1,1,0.1,2,0.6c0.9,0.5,1.5,0.8,1.8,1.1c0.4,0.4,0.7,1.4,1.1,3
		s0.4,2.7,0.3,3.2C156.3,62.1,155.9,62.7,155.2,63.5z M152.6,62.4c0.2,0.2,0.4,0.2,0.5,0.2c0.1,0,0.3-0.2,0.4-0.4
		c0.2-0.2,0.3-0.4,0.3-0.6c0.1-0.3,0-1.1-0.3-2.5c-0.3-1.3-0.5-2.1-0.8-2.4c-0.1-0.1-0.3-0.3-0.6-0.4c-0.2-0.2-0.4-0.2-0.5-0.2
		c-0.1,0-0.3,0.2-0.4,0.4c-0.2,0.2-0.3,0.4-0.3,0.6c-0.1,0.3,0,1.1,0.3,2.5s0.5,2.1,0.8,2.4C152.2,62.1,152.4,62.2,152.6,62.4z"/>
	<path d="M164.5,54.3l0.4,1.7c0.3,1.6,0.5,2.6,0.4,3c-0.1,0.4-0.5,1.2-1.2,2.2c-0.7,1.1-1.2,1.7-1.7,1.8c-0.4,0.1-1.2-0.2-2.2-0.9
		c-1.1-0.7-1.7-1.2-2-1.6c-0.2-0.4-0.5-1.3-0.9-2.8l-1-4.6l2.6-0.6l1,4.6c0.3,1.4,0.5,2.2,0.7,2.4c0.1,0.2,0.4,0.4,0.6,0.6
		c0.3,0.2,0.5,0.3,0.6,0.3c0.1,0,0.3-0.2,0.5-0.5c0.2-0.3,0.3-0.6,0.3-0.8c0-0.3-0.1-1.1-0.4-2.4l-0.2-0.8c-0.1-0.7-0.3-1.2-0.6-1.5
		c-0.2-0.3-0.6-0.6-0.9-0.8l1.8-2C163.5,52,164.2,53,164.5,54.3z"/>
	<path d="M173.5,54.8l0.2,0.7l-4.7,1c0.2,0.8,0.4,1.4,0.7,1.8c0.1,0.1,0.2,0.3,0.5,0.4c0.2,0.1,0.4,0.2,0.6,0.1
		c0.2,0,0.4-0.2,0.6-0.6c0.2-0.4,0.3-0.8,0.4-1.3l2.3,1c-0.2,0.7-0.6,1.4-1.3,2c-0.6,0.6-1.2,1-1.6,1.1c-0.4,0.1-1.2-0.1-2.1-0.6
		c-1-0.5-1.6-0.9-1.9-1.3c-0.3-0.3-0.6-1.3-0.9-2.8c-0.3-1.5-0.4-2.5-0.3-2.9c0.1-0.4,0.5-1.1,1.2-1.9c0.7-0.9,1.2-1.3,1.6-1.4
		c0.4-0.1,1.1,0.1,2.1,0.6c1,0.5,1.6,0.9,1.9,1.3C172.9,52.4,173.2,53.3,173.5,54.8z M170.3,52.9c-0.1-0.2-0.3-0.3-0.6-0.4
		c-0.2-0.1-0.4-0.2-0.6-0.1c-0.2,0-0.3,0.3-0.5,0.6c-0.1,0.4-0.2,0.9-0.1,1.6l2.2-0.5C170.6,53.5,170.4,53.1,170.3,52.9z"/>
</g>
</svg>
